<svg id="svg" version="1.1" xmlns="http://www.w3.org/2000/svg" xmlns:xlink="http://www.w3.org/1999/xlink" width="400" height="252.12121212121212" viewBox="0, 0, 400,252.12121212121212"><g id="svgg"><path id="path0" d="M150.326 3.209 C 136.980 3.255,129.441 3.371,129.280 3.532 C 129.142 3.670,128.708 3.783,128.315 3.783 C 127.913 3.783,127.537 3.948,127.456 4.161 C 127.376 4.369,127.155 4.540,126.965 4.540 C 125.659 4.540,125.718 2.300,125.809 48.498 L 125.894 91.089 125.368 90.563 C 125.079 90.274,124.842 89.964,124.842 89.875 C 124.842 89.616,123.082 87.488,121.940 86.365 C 121.367 85.802,120.824 85.149,120.734 84.915 C 120.644 84.681,120.397 84.489,120.184 84.489 C 119.972 84.489,119.798 84.319,119.798 84.111 C 119.798 83.903,119.628 83.733,119.420 83.733 C 119.212 83.733,119.042 83.562,119.042 83.354 C 119.042 83.146,118.871 82.976,118.663 82.976 C 118.455 82.976,118.285 82.806,118.285 82.598 C 118.285 82.390,118.168 82.219,118.024 82.219 C 117.881 82.219,117.404 81.851,116.964 81.400 C 116.141 80.556,115.460 80.076,114.691 79.798 C 114.448 79.710,114.250 79.482,114.250 79.290 C 114.250 79.060,113.952 78.941,113.375 78.941 C 112.701 78.941,112.533 78.854,112.645 78.562 C 112.736 78.326,112.643 78.184,112.398 78.184 C 112.182 78.184,111.914 78.037,111.803 77.856 C 111.692 77.676,111.062 77.217,110.404 76.837 C 109.745 76.456,109.206 76.036,109.206 75.904 C 109.206 75.771,108.985 75.662,108.716 75.662 C 108.447 75.662,108.152 75.542,108.061 75.394 C 107.970 75.247,107.651 75.020,107.353 74.890 C 107.054 74.761,106.611 74.541,106.368 74.402 C 106.125 74.263,105.728 74.035,105.485 73.896 C 105.243 73.757,104.760 73.527,104.414 73.385 C 104.067 73.243,103.129 72.789,102.329 72.377 C 101.530 71.964,100.721 71.627,100.532 71.627 C 100.343 71.627,100.047 71.456,99.874 71.248 C 99.685 71.021,99.133 70.870,98.487 70.870 C 97.886 70.870,97.287 70.718,97.127 70.525 C 96.969 70.334,96.371 70.116,95.799 70.039 C 95.226 69.962,94.680 69.774,94.585 69.622 C 94.491 69.469,93.798 69.279,93.045 69.200 C 92.293 69.121,91.320 68.897,90.882 68.703 C 90.445 68.508,89.651 68.344,89.117 68.340 C 88.583 68.336,87.926 68.165,87.657 67.962 C 87.274 67.673,86.297 67.591,83.195 67.591 C 80.819 67.591,79.160 67.490,79.067 67.339 C 78.860 67.004,73.644 67.004,73.644 67.339 C 73.644 67.498,71.913 67.591,68.954 67.591 C 65.462 67.591,64.060 67.682,63.468 67.947 C 63.031 68.142,61.960 68.359,61.088 68.428 C 60.216 68.497,59.364 68.663,59.196 68.795 C 59.028 68.928,58.392 69.100,57.782 69.178 C 57.173 69.255,56.602 69.435,56.513 69.578 C 56.425 69.721,55.864 69.916,55.267 70.011 C 54.670 70.107,54.122 70.339,54.050 70.527 C 53.966 70.745,53.510 70.870,52.802 70.870 C 52.043 70.870,51.640 70.991,51.541 71.248 C 51.462 71.456,51.121 71.627,50.785 71.627 C 50.448 71.627,50.108 71.797,50.028 72.005 C 49.941 72.231,49.561 72.383,49.083 72.383 C 48.644 72.383,48.060 72.538,47.786 72.728 C 47.513 72.917,47.010 73.159,46.670 73.265 C 46.330 73.372,45.896 73.614,45.706 73.804 C 45.516 73.994,45.139 74.149,44.867 74.149 C 44.595 74.149,44.307 74.319,44.227 74.527 C 44.148 74.735,43.807 74.905,43.471 74.905 C 43.134 74.905,42.794 75.076,42.714 75.284 C 42.634 75.492,42.372 75.662,42.130 75.662 C 41.743 75.662,41.413 75.874,40.175 76.918 C 40.007 77.060,39.712 77.175,39.520 77.175 C 39.327 77.175,38.908 77.402,38.588 77.680 C 38.268 77.957,37.850 78.184,37.658 78.184 C 37.467 78.184,37.245 78.354,37.166 78.562 C 37.086 78.770,36.848 78.941,36.637 78.941 C 36.426 78.941,35.785 79.344,35.213 79.836 C 33.739 81.106,33.595 81.211,33.314 81.211 C 33.177 81.211,32.973 81.352,32.862 81.526 C 32.595 81.943,31.112 82.976,30.779 82.976 C 30.635 82.976,30.517 83.146,30.517 83.354 C 30.517 83.562,30.392 83.733,30.240 83.733 C 30.087 83.733,29.444 84.243,28.811 84.868 C 28.178 85.492,27.566 86.003,27.451 86.003 C 27.184 86.003,23.960 89.266,23.960 89.536 C 23.960 89.648,23.222 90.477,22.320 91.378 C 21.419 92.280,20.681 93.129,20.681 93.266 C 20.681 93.403,20.511 93.580,20.303 93.660 C 20.095 93.740,19.924 93.930,19.924 94.083 C 19.924 94.235,19.187 95.305,18.285 96.460 C 17.383 97.615,16.646 98.685,16.646 98.838 C 16.646 98.992,16.475 99.117,16.267 99.117 C 16.059 99.117,15.889 99.292,15.889 99.506 C 15.889 99.869,15.136 101.086,14.455 101.823 C 14.291 102.001,14.085 102.373,13.997 102.650 C 13.909 102.926,13.732 103.153,13.602 103.153 C 13.473 103.153,13.367 103.331,13.367 103.549 C 13.367 103.767,13.197 104.115,12.989 104.324 C 12.781 104.532,12.610 104.909,12.610 105.161 C 12.610 105.414,12.440 105.686,12.232 105.766 C 12.024 105.846,11.854 106.198,11.854 106.549 C 11.854 106.901,11.751 107.188,11.626 107.188 C 11.309 107.188,10.342 108.884,10.170 109.742 C 10.092 110.134,9.871 110.585,9.680 110.744 C 9.488 110.903,9.332 111.290,9.332 111.605 C 9.332 111.920,9.161 112.243,8.953 112.323 C 8.737 112.406,8.575 112.783,8.575 113.202 C 8.575 113.606,8.405 114.077,8.197 114.250 C 7.989 114.422,7.818 114.763,7.818 115.006 C 7.818 115.250,7.651 115.588,7.447 115.757 C 7.242 115.927,7.003 116.480,6.914 116.986 C 6.825 117.492,6.595 118.158,6.403 118.465 C 6.210 118.773,6.053 119.243,6.053 119.510 C 6.053 119.778,5.883 120.062,5.675 120.142 C 5.458 120.225,5.296 120.601,5.296 121.020 C 5.296 121.424,5.126 121.895,4.918 122.068 C 4.690 122.257,4.540 122.809,4.540 123.459 C 4.540 124.184,4.416 124.584,4.161 124.681 C 3.928 124.771,3.783 125.155,3.783 125.686 C 3.783 126.159,3.622 126.680,3.425 126.844 C 3.227 127.007,2.987 127.606,2.892 128.173 C 2.796 128.740,2.560 129.581,2.367 130.042 C 2.175 130.502,2.014 131.365,2.010 131.959 C 2.005 132.553,1.835 133.259,1.631 133.529 C 1.398 133.837,1.261 134.598,1.261 135.582 C 1.261 136.740,1.163 137.184,0.883 137.292 C 0.578 137.409,0.504 137.979,0.504 140.219 C 0.504 141.906,0.405 143.001,0.252 143.001 C 0.087 143.001,0.000 148.172,0.000 158.008 C 0.000 167.844,0.087 173.014,0.252 173.014 C 0.405 173.014,0.504 174.109,0.504 175.796 C 0.504 178.036,0.578 178.607,0.883 178.723 C 1.162 178.831,1.261 179.274,1.261 180.425 C 1.261 181.329,1.405 182.189,1.606 182.479 C 1.795 182.752,2.005 183.651,2.072 184.477 C 2.139 185.302,2.324 186.021,2.484 186.074 C 2.644 186.127,2.778 186.530,2.783 186.969 C 2.788 187.409,3.011 188.222,3.279 188.777 C 3.547 189.332,3.770 190.084,3.775 190.448 C 3.779 190.813,3.953 191.252,4.161 191.425 C 4.375 191.602,4.540 192.152,4.540 192.686 C 4.540 193.220,4.705 193.770,4.918 193.947 C 5.126 194.120,5.296 194.591,5.296 194.995 C 5.296 195.414,5.458 195.790,5.675 195.873 C 5.883 195.953,6.053 196.269,6.053 196.574 C 6.053 196.879,6.220 197.350,6.423 197.619 C 6.627 197.888,6.797 198.364,6.802 198.676 C 6.806 198.988,7.037 199.470,7.314 199.748 C 7.591 200.025,7.818 200.458,7.818 200.708 C 7.818 200.959,7.985 201.385,8.189 201.654 C 8.392 201.923,8.563 202.403,8.567 202.719 C 8.571 203.036,8.745 203.360,8.953 203.440 C 9.161 203.520,9.337 203.828,9.343 204.125 C 9.349 204.423,9.632 205.120,9.971 205.675 C 10.311 206.230,10.656 206.854,10.738 207.062 C 11.159 208.137,11.921 209.500,12.329 209.908 C 12.484 210.063,12.610 210.405,12.610 210.670 C 12.610 210.934,12.951 211.581,13.367 212.106 C 13.783 212.631,14.124 213.125,14.124 213.203 C 14.124 213.378,15.349 215.198,15.589 215.379 C 15.825 215.558,16.342 216.397,16.640 217.087 C 16.775 217.399,17.002 217.654,17.144 217.654 C 17.286 217.654,17.402 217.778,17.402 217.929 C 17.402 218.210,18.337 219.322,19.357 220.253 C 19.669 220.539,19.924 220.978,19.924 221.231 C 19.924 221.483,20.095 221.690,20.303 221.690 C 20.511 221.690,20.681 221.864,20.681 222.076 C 20.681 222.288,20.851 222.528,21.059 222.607 C 21.267 222.687,21.438 222.850,21.438 222.969 C 21.438 223.268,24.928 226.734,25.229 226.734 C 25.363 226.734,25.473 226.844,25.473 226.978 C 25.473 227.232,27.152 229.004,27.393 229.004 C 27.468 229.004,27.951 229.429,28.466 229.950 C 29.544 231.039,30.357 231.720,31.328 232.346 C 31.705 232.589,32.340 233.100,32.739 233.481 C 34.450 235.114,35.488 235.894,36.381 236.217 C 36.624 236.305,36.822 236.475,36.822 236.596 C 36.822 236.717,37.191 236.977,37.642 237.174 C 38.093 237.371,38.791 237.827,39.194 238.186 C 39.597 238.546,40.123 238.840,40.361 238.840 C 40.600 238.840,40.937 239.010,41.110 239.218 C 41.282 239.426,41.681 239.596,41.996 239.596 C 42.311 239.596,42.634 239.767,42.714 239.975 C 42.794 240.183,43.147 240.353,43.498 240.353 C 43.849 240.353,44.136 240.469,44.136 240.612 C 44.136 240.754,44.448 240.984,44.830 241.123 C 45.879 241.505,47.240 242.206,47.618 242.560 C 47.804 242.733,48.389 242.875,48.919 242.875 C 49.543 242.875,49.934 243.009,50.028 243.253 C 50.108 243.462,50.448 243.632,50.785 243.632 C 51.121 243.632,51.456 243.788,51.529 243.978 C 51.602 244.169,52.182 244.403,52.817 244.498 C 53.453 244.594,53.972 244.769,53.972 244.888 C 53.972 245.007,54.335 245.185,54.778 245.282 C 55.221 245.379,55.739 245.615,55.931 245.806 C 56.153 246.028,56.854 246.154,57.872 246.154 C 59.057 246.154,59.504 246.251,59.612 246.532 C 59.714 246.797,60.127 246.910,60.995 246.910 C 61.788 246.910,62.346 247.047,62.547 247.289 C 62.786 247.577,63.437 247.667,65.270 247.667 C 67.116 247.667,67.781 247.761,68.120 248.068 C 68.436 248.354,69.416 248.530,71.545 248.686 C 73.185 248.806,75.208 249.014,76.040 249.147 C 78.006 249.463,85.091 249.470,87.516 249.159 C 88.556 249.025,90.476 248.806,91.782 248.671 C 93.240 248.521,94.318 248.280,94.576 248.047 C 94.872 247.779,95.558 247.667,96.899 247.667 C 98.284 247.667,98.889 247.564,99.117 247.289 C 99.296 247.074,99.846 246.910,100.391 246.910 C 100.919 246.910,101.521 246.740,101.729 246.532 C 101.965 246.297,102.584 246.154,103.369 246.154 C 104.153 246.154,104.773 246.011,105.008 245.776 C 105.216 245.567,105.596 245.397,105.853 245.397 C 106.109 245.397,106.543 245.241,106.817 245.050 C 107.090 244.859,107.918 244.621,108.656 244.520 C 109.431 244.414,110.055 244.187,110.133 243.984 C 110.208 243.790,110.583 243.632,110.967 243.632 C 111.351 243.632,111.807 243.462,111.980 243.253 C 112.153 243.045,112.612 242.875,113.002 242.875 C 113.391 242.875,113.874 242.711,114.075 242.509 C 114.276 242.308,114.738 242.069,115.102 241.978 C 115.465 241.886,115.763 241.719,115.763 241.607 C 115.763 241.494,116.111 241.326,116.537 241.232 C 116.962 241.139,117.371 240.903,117.446 240.708 C 117.521 240.513,117.783 240.353,118.029 240.353 C 118.274 240.353,118.617 240.183,118.789 239.975 C 118.962 239.767,119.246 239.596,119.420 239.596 C 119.594 239.596,119.878 239.426,120.050 239.218 C 120.223 239.010,120.549 238.839,120.775 238.839 C 121.134 238.838,121.567 238.516,123.644 236.703 C 123.887 236.491,124.176 236.318,124.287 236.318 C 124.397 236.318,124.766 235.982,125.106 235.572 C 125.447 235.162,125.813 234.821,125.921 234.815 C 126.128 234.804,127.407 233.711,128.801 232.354 C 129.259 231.908,129.634 231.369,129.634 231.156 C 129.634 230.943,129.746 230.769,129.884 230.769 C 130.207 230.769,131.148 229.964,131.148 229.686 C 131.148 229.569,131.885 228.763,132.787 227.896 C 133.689 227.029,134.426 226.186,134.426 226.023 C 134.426 225.859,134.596 225.725,134.805 225.725 C 135.013 225.725,135.183 225.583,135.183 225.409 C 135.183 225.235,135.557 224.567,136.013 223.925 L 136.844 222.757 137.130 223.674 C 137.287 224.179,137.551 225.366,137.716 226.312 C 137.890 227.315,138.161 228.089,138.365 228.167 C 138.564 228.244,138.714 228.657,138.714 229.130 C 138.714 229.634,138.862 230.016,139.092 230.104 C 139.330 230.195,139.470 230.581,139.470 231.148 C 139.470 231.714,139.610 232.100,139.849 232.191 C 140.057 232.271,140.227 232.612,140.227 232.948 C 140.227 233.284,140.397 233.625,140.605 233.705 C 140.813 233.784,140.984 234.047,140.984 234.288 C 140.984 234.529,141.211 234.932,141.488 235.183 C 141.765 235.434,141.992 235.792,141.992 235.979 C 141.992 236.165,142.163 236.318,142.371 236.318 C 142.579 236.318,142.749 236.436,142.749 236.580 C 142.749 237.483,147.619 242.384,149.050 242.921 C 149.301 243.015,149.582 243.213,149.674 243.362 C 149.766 243.510,150.049 243.632,150.303 243.632 C 150.558 243.632,150.831 243.802,150.911 244.010 C 150.991 244.218,151.278 244.388,151.550 244.388 C 151.822 244.388,152.195 244.535,152.378 244.713 C 153.114 245.431,154.579 246.154,155.295 246.154 C 155.713 246.154,156.196 246.324,156.368 246.532 C 156.541 246.740,157.052 246.910,157.503 246.910 C 157.955 246.910,158.465 247.081,158.638 247.289 C 158.837 247.529,159.394 247.667,160.161 247.667 C 160.826 247.667,161.410 247.787,161.459 247.933 C 161.586 248.313,163.305 248.663,165.082 248.670 C 165.959 248.673,166.742 248.810,166.923 248.991 C 167.346 249.415,183.119 249.573,186.003 249.182 C 187.112 249.031,189.205 248.798,190.653 248.662 C 192.327 248.506,193.436 248.280,193.699 248.042 C 194.008 247.762,194.761 247.667,196.660 247.667 C 198.588 247.667,199.299 247.575,199.586 247.289 C 199.837 247.037,200.467 246.910,201.464 246.910 C 202.490 246.910,203.064 246.791,203.279 246.532 C 203.548 246.208,204.964 246.154,213.164 246.154 L 222.735 246.154 223.852 245.499 C 224.655 245.028,224.968 244.683,224.968 244.269 C 224.968 243.953,225.139 243.552,225.347 243.380 C 225.555 243.207,225.725 242.696,225.725 242.245 C 225.725 241.793,225.895 241.282,226.103 241.110 C 226.311 240.937,226.482 240.553,226.482 240.255 C 226.482 239.958,226.709 239.292,226.986 238.774 C 227.264 238.256,227.491 237.675,227.491 237.482 C 227.491 237.290,227.660 236.807,227.867 236.410 C 228.075 236.012,228.245 235.389,228.246 235.025 C 228.246 234.660,228.417 234.221,228.625 234.048 C 228.834 233.875,229.004 233.420,229.004 233.035 C 229.004 232.647,229.172 232.272,229.382 232.191 C 229.629 232.096,229.760 231.704,229.760 231.060 C 229.760 230.511,229.921 229.941,230.123 229.774 C 230.322 229.609,230.563 229.112,230.659 228.671 C 230.755 228.230,230.989 227.645,231.180 227.371 C 231.370 227.098,231.529 226.587,231.534 226.236 C 231.538 225.886,231.709 225.379,231.912 225.109 C 232.116 224.840,232.282 224.258,232.282 223.816 C 232.282 223.374,232.453 222.871,232.661 222.699 C 232.869 222.526,233.039 222.070,233.039 221.686 C 233.039 221.297,233.207 220.923,233.417 220.842 C 233.625 220.762,233.796 220.408,233.796 220.055 C 233.796 219.702,233.895 219.216,234.016 218.975 C 234.562 217.890,235.382 215.695,235.497 215.006 C 235.567 214.590,235.711 214.136,235.816 213.997 C 235.921 213.859,236.091 213.354,236.193 212.877 C 236.296 212.399,236.536 211.852,236.727 211.661 C 236.918 211.470,237.074 210.881,237.074 210.353 C 237.074 209.808,237.238 209.258,237.453 209.079 C 237.661 208.907,237.831 208.445,237.831 208.052 C 237.831 207.660,237.984 207.248,238.171 207.137 C 238.486 206.951,239.596 203.836,239.596 203.141 C 239.596 202.973,239.767 202.695,239.975 202.522 C 240.183 202.349,240.353 201.894,240.353 201.511 C 240.353 201.128,240.523 200.489,240.730 200.092 C 240.937 199.695,241.107 199.171,241.108 198.928 C 241.110 198.529,241.158 198.535,241.614 198.991 C 241.928 199.305,242.119 199.832,242.119 200.386 C 242.119 200.945,242.259 201.331,242.497 201.422 C 242.728 201.511,242.875 201.893,242.875 202.405 C 242.875 202.866,243.045 203.413,243.253 203.621 C 243.462 203.829,243.632 204.397,243.632 204.882 C 243.632 205.368,243.802 205.935,244.010 206.143 C 244.218 206.351,244.388 206.748,244.388 207.026 C 244.388 207.303,244.553 207.695,244.754 207.896 C 244.955 208.097,245.198 208.852,245.294 209.575 C 245.392 210.312,245.618 210.946,245.811 211.019 C 246.000 211.092,246.154 211.483,246.154 211.889 C 246.154 212.312,246.315 212.688,246.532 212.771 C 246.796 212.872,246.910 213.283,246.910 214.124 C 246.910 214.964,247.025 215.375,247.289 215.476 C 247.497 215.556,247.667 215.887,247.667 216.211 C 247.667 216.536,247.834 217.022,248.037 217.291 C 248.241 217.560,248.411 218.123,248.416 218.541 C 248.420 218.959,248.651 219.725,248.928 220.242 C 249.206 220.760,249.433 221.358,249.433 221.571 C 249.433 221.784,249.603 222.023,249.811 222.103 C 250.076 222.205,250.189 222.619,250.189 223.490 C 250.189 224.361,250.302 224.775,250.567 224.877 C 250.776 224.957,250.946 225.229,250.946 225.482 C 250.946 225.735,251.116 226.112,251.324 226.320 C 251.532 226.528,251.702 227.135,251.702 227.669 C 251.702 228.203,251.858 228.863,252.048 229.137 C 252.239 229.410,252.473 229.994,252.568 230.433 C 252.664 230.872,252.905 231.294,253.105 231.371 C 253.347 231.464,253.468 231.891,253.468 232.653 C 253.468 233.501,253.566 233.796,253.846 233.796 C 254.108 233.796,254.224 234.058,254.224 234.648 C 254.224 235.116,254.395 235.641,254.603 235.813 C 254.818 235.992,254.981 236.542,254.981 237.087 C 254.981 237.615,255.151 238.217,255.359 238.426 C 255.567 238.634,255.738 238.957,255.738 239.144 C 255.738 239.331,255.891 239.708,256.079 239.982 C 256.266 240.255,256.499 240.987,256.595 241.608 C 256.692 242.228,256.924 242.909,257.111 243.121 C 257.298 243.332,257.492 243.727,257.541 243.998 C 257.591 244.269,258.122 244.865,258.722 245.322 L 259.812 246.154 280.158 246.148 C 299.963 246.143,300.521 246.129,301.135 245.649 C 301.482 245.378,301.894 245.154,302.051 245.151 C 302.209 245.148,302.400 244.946,302.477 244.704 C 302.554 244.461,302.778 243.979,302.975 243.632 C 303.885 242.028,304.161 241.364,304.161 240.786 C 304.161 240.443,304.332 240.021,304.540 239.849 C 304.748 239.676,304.918 239.222,304.918 238.840 C 304.918 238.458,305.088 238.004,305.296 237.831 C 305.504 237.658,305.675 237.244,305.675 236.910 C 305.675 236.575,305.838 236.239,306.038 236.163 C 306.237 236.086,306.475 235.685,306.566 235.271 C 306.657 234.857,306.890 234.214,307.084 233.842 C 307.278 233.470,307.441 232.995,307.447 232.787 C 307.452 232.579,307.623 232.188,307.826 231.919 C 308.030 231.650,308.197 231.103,308.197 230.703 C 308.197 230.303,308.367 229.806,308.575 229.598 C 308.783 229.390,308.953 229.015,308.953 228.764 C 308.953 228.514,309.124 228.168,309.332 227.995 C 309.540 227.822,309.710 227.493,309.710 227.264 C 309.710 227.034,309.866 226.622,310.056 226.349 C 310.246 226.075,310.487 225.460,310.591 224.983 C 310.695 224.505,310.937 223.958,311.128 223.767 C 311.319 223.576,311.479 223.172,311.483 222.870 C 311.488 222.568,311.658 222.100,311.862 221.831 C 312.065 221.561,312.232 221.093,312.232 220.790 C 312.232 220.486,312.402 220.097,312.610 219.924 C 312.818 219.752,312.989 219.347,312.989 219.026 C 312.989 218.704,313.102 218.371,313.241 218.285 C 313.380 218.199,313.620 217.625,313.775 217.009 C 313.930 216.393,314.148 215.889,314.260 215.889 C 314.371 215.889,314.537 215.547,314.629 215.129 C 314.721 214.711,315.127 213.748,315.532 212.990 C 315.936 212.232,316.267 211.282,316.267 210.881 C 316.267 210.479,316.438 210.009,316.646 209.836 C 316.854 209.663,317.024 209.316,317.024 209.063 C 317.024 208.811,317.128 208.541,317.254 208.462 C 317.558 208.275,318.537 206.243,318.537 205.801 C 318.537 205.492,319.219 203.839,319.799 202.742 C 319.918 202.517,320.092 201.925,320.186 201.427 C 320.279 200.930,320.514 200.391,320.707 200.230 C 320.901 200.070,321.063 199.754,321.067 199.528 C 321.072 199.302,321.242 198.897,321.446 198.628 C 321.649 198.358,321.816 197.816,321.816 197.422 C 321.816 197.028,321.979 196.643,322.179 196.566 C 322.378 196.490,322.618 196.068,322.712 195.628 C 322.806 195.189,322.970 194.716,323.077 194.578 C 323.184 194.439,323.355 193.928,323.458 193.443 C 323.561 192.957,323.802 192.336,323.992 192.062 C 324.182 191.789,324.338 191.363,324.338 191.117 C 324.338 190.870,324.446 190.668,324.579 190.668 C 324.711 190.668,324.897 190.256,324.992 189.751 C 325.086 189.247,325.662 187.858,326.271 186.665 C 326.880 185.471,327.446 184.070,327.529 183.551 C 327.612 183.032,327.836 182.478,328.026 182.319 C 328.217 182.161,328.377 181.847,328.381 181.621 C 328.386 181.395,328.556 180.990,328.760 180.721 C 328.963 180.452,329.130 179.992,329.130 179.700 C 329.130 179.407,329.262 179.035,329.424 178.873 C 329.740 178.558,330.255 177.297,330.737 175.662 C 330.900 175.107,331.343 174.048,331.721 173.308 C 332.099 172.569,332.409 171.851,332.409 171.714 C 332.409 171.577,332.579 171.294,332.787 171.086 C 332.995 170.878,333.165 170.401,333.165 170.025 C 333.165 169.650,333.321 169.119,333.511 168.846 C 333.702 168.572,333.943 167.955,334.047 167.476 C 334.152 166.996,334.564 166.000,334.962 165.263 C 335.361 164.526,335.687 163.691,335.687 163.406 C 335.687 163.122,335.858 162.719,336.066 162.511 C 336.274 162.303,336.444 161.871,336.444 161.551 C 336.444 161.231,336.614 160.828,336.822 160.656 C 337.030 160.483,337.201 160.029,337.201 159.647 C 337.201 159.265,337.371 158.811,337.579 158.638 C 337.787 158.465,337.958 158.083,337.959 157.788 C 337.960 157.492,338.186 156.910,338.462 156.494 C 338.737 156.078,338.963 155.496,338.964 155.201 C 338.965 154.906,339.136 154.523,339.344 154.351 C 339.552 154.178,339.726 153.795,339.731 153.500 C 339.735 153.205,339.905 152.743,340.109 152.474 C 340.313 152.205,340.479 151.828,340.479 151.636 C 340.479 151.445,340.649 151.118,340.858 150.910 C 341.066 150.702,341.236 150.255,341.236 149.918 C 341.236 149.581,341.463 148.881,341.740 148.363 C 342.018 147.846,342.248 147.250,342.253 147.040 C 342.257 146.830,342.427 146.438,342.631 146.169 C 342.835 145.899,343.001 145.431,343.001 145.128 C 343.001 144.824,343.172 144.435,343.380 144.262 C 343.588 144.090,343.758 143.749,343.758 143.506 C 343.758 143.262,343.928 142.922,344.136 142.749 C 344.344 142.576,344.518 142.250,344.523 142.025 C 344.527 141.799,344.697 141.394,344.901 141.125 C 345.104 140.855,345.271 140.390,345.271 140.091 C 345.271 139.791,345.668 138.798,346.154 137.883 C 346.639 136.968,347.037 136.002,347.037 135.737 C 347.037 135.471,347.377 134.616,347.793 133.836 C 348.209 133.056,348.553 132.161,348.558 131.846 C 348.562 131.531,348.732 131.053,348.936 130.784 C 349.140 130.515,349.306 130.079,349.306 129.815 C 349.306 129.551,349.533 129.047,349.811 128.694 C 350.088 128.342,350.315 127.844,350.315 127.588 C 350.315 127.333,350.656 126.494,351.072 125.725 C 351.488 124.956,351.828 124.003,351.828 123.607 C 351.828 123.211,351.999 122.745,352.207 122.573 C 352.415 122.400,352.585 122.059,352.585 121.816 C 352.585 121.572,352.755 121.232,352.963 121.059 C 353.172 120.887,353.342 120.511,353.342 120.225 C 353.342 119.741,354.083 117.889,354.622 117.024 C 354.752 116.816,354.923 116.475,355.001 116.267 C 355.080 116.059,355.241 115.704,355.361 115.479 C 355.480 115.253,355.653 114.661,355.747 114.164 C 355.840 113.666,356.075 113.127,356.269 112.967 C 356.462 112.806,356.620 112.468,356.620 112.216 C 356.620 111.964,356.734 111.687,356.873 111.602 C 357.011 111.516,357.125 111.220,357.125 110.944 C 357.125 110.668,357.352 109.972,357.629 109.398 C 358.445 107.710,358.035 106.428,356.330 105.334 L 355.485 104.792 333.670 104.716 C 321.671 104.674,311.232 104.713,310.473 104.804 C 308.991 104.981,307.440 106.193,307.440 107.175 C 307.440 107.426,307.270 107.772,307.062 107.945 C 306.840 108.128,306.680 108.690,306.675 109.299 C 306.671 109.872,306.501 110.561,306.297 110.830 C 306.093 111.099,305.927 111.476,305.927 111.668 C 305.927 111.859,305.757 112.186,305.549 112.394 C 305.317 112.626,305.170 113.244,305.170 113.989 C 305.170 114.786,305.051 115.250,304.824 115.337 C 304.634 115.410,304.398 115.790,304.300 116.181 C 304.202 116.573,304.007 116.963,303.867 117.050 C 303.728 117.136,303.562 117.758,303.499 118.431 C 303.436 119.104,303.219 119.838,303.016 120.062 C 302.814 120.285,302.648 120.723,302.648 121.034 C 302.648 121.345,302.478 121.770,302.270 121.978 C 302.062 122.186,301.892 122.754,301.892 123.239 C 301.892 123.725,301.721 124.292,301.513 124.500 C 301.305 124.708,301.135 125.117,301.135 125.408 C 301.135 125.699,300.954 126.138,300.732 126.382 C 300.511 126.627,300.312 127.277,300.291 127.826 C 300.270 128.376,300.167 128.774,300.063 128.710 C 299.822 128.564,299.369 129.734,299.369 130.503 C 299.369 130.823,299.199 131.227,298.991 131.400 C 298.783 131.572,298.613 132.083,298.613 132.535 C 298.613 132.986,298.443 133.497,298.235 133.670 C 298.026 133.842,297.856 134.355,297.856 134.808 C 297.856 135.309,297.708 135.690,297.478 135.778 C 297.238 135.871,297.100 136.258,297.100 136.838 C 297.100 137.370,296.889 138.019,296.595 138.393 C 296.318 138.745,296.091 139.311,296.091 139.648 C 296.091 139.986,295.921 140.433,295.712 140.641 C 295.504 140.849,295.334 141.274,295.334 141.584 C 295.334 141.894,295.168 142.369,294.964 142.638 C 294.760 142.907,294.590 143.312,294.586 143.538 C 294.581 143.764,294.407 144.090,294.199 144.262 C 293.991 144.435,293.821 144.946,293.821 145.397 C 293.821 145.849,293.651 146.359,293.443 146.532 C 293.235 146.705,293.064 147.006,293.064 147.202 C 293.064 147.398,292.905 147.810,292.710 148.117 C 292.515 148.425,292.274 149.187,292.174 149.811 C 292.074 150.435,291.836 151.170,291.646 151.443 C 291.455 151.717,291.299 152.129,291.299 152.358 C 291.299 152.588,291.129 152.917,290.921 153.090 C 290.712 153.262,290.542 153.738,290.542 154.147 C 290.542 154.556,290.372 155.061,290.164 155.269 C 289.956 155.477,289.786 155.909,289.786 156.229 C 289.786 156.549,289.615 156.952,289.407 157.125 C 289.199 157.298,289.029 157.808,289.029 158.260 C 289.029 158.711,288.873 159.210,288.682 159.369 C 288.491 159.527,288.261 160.123,288.170 160.692 C 288.079 161.262,287.837 161.966,287.634 162.257 C 287.430 162.548,287.264 163.087,287.264 163.455 C 287.264 163.824,287.093 164.266,286.885 164.439 C 286.677 164.612,286.503 164.938,286.499 165.163 C 286.495 165.389,286.324 165.794,286.121 166.063 C 285.917 166.333,285.750 167.085,285.750 167.735 C 285.750 168.478,285.610 169.033,285.372 169.231 C 285.164 169.403,284.994 169.721,284.994 169.935 C 284.994 170.150,284.804 170.535,284.573 170.791 C 284.331 171.058,284.103 171.843,284.038 172.634 C 283.975 173.392,283.767 174.142,283.576 174.300 C 283.385 174.459,283.228 174.788,283.228 175.032 C 283.228 175.275,283.058 175.615,282.850 175.788 C 282.622 175.978,282.472 176.529,282.472 177.179 C 282.472 177.904,282.348 178.304,282.093 178.401 C 281.876 178.485,281.715 178.861,281.715 179.284 C 281.715 179.690,281.562 180.081,281.374 180.153 C 281.186 180.225,280.965 180.776,280.883 181.379 C 280.800 181.981,280.388 183.154,279.966 183.986 C 279.544 184.818,279.198 185.875,279.196 186.336 C 279.194 186.797,279.023 187.344,278.815 187.552 C 278.607 187.760,278.436 188.192,278.436 188.512 C 278.436 188.832,278.266 189.235,278.058 189.407 C 277.841 189.588,277.680 190.138,277.680 190.699 C 277.680 191.237,277.576 191.677,277.449 191.677 C 277.321 191.677,277.103 191.989,276.964 192.371 C 276.717 193.048,276.710 193.042,276.691 192.094 C 276.672 191.175,276.345 190.189,275.521 188.567 C 275.321 188.174,275.158 187.583,275.158 187.252 C 275.158 186.922,274.931 186.076,274.653 185.372 C 274.376 184.668,274.149 183.883,274.149 183.628 C 274.149 183.373,273.992 183.034,273.801 182.875 C 273.610 182.717,273.400 181.943,273.335 181.155 C 273.270 180.367,273.086 179.679,272.926 179.626 C 272.766 179.573,272.636 179.163,272.636 178.716 C 272.636 178.268,272.469 177.682,272.265 177.413 C 272.062 177.143,271.893 176.639,271.891 176.293 C 271.885 175.548,270.969 172.469,270.416 171.339 C 270.045 170.581,270.063 170.476,270.815 168.943 C 271.248 168.061,271.682 167.006,271.780 166.599 C 271.877 166.193,272.109 165.568,272.295 165.212 C 272.480 164.856,272.633 164.322,272.634 164.024 C 272.635 163.727,272.806 163.419,273.014 163.339 C 273.230 163.256,273.392 162.879,273.392 162.460 C 273.392 162.056,273.562 161.585,273.770 161.412 C 273.979 161.240,274.149 160.899,274.149 160.656 C 274.149 160.412,274.309 160.080,274.505 159.917 C 274.701 159.755,274.942 159.038,275.040 158.325 C 275.138 157.612,275.375 156.872,275.566 156.680 C 275.758 156.489,275.918 156.085,275.922 155.783 C 275.927 155.481,276.097 155.013,276.301 154.744 C 276.504 154.474,276.671 154.006,276.671 153.703 C 276.671 153.399,276.841 153.010,277.049 152.837 C 277.257 152.665,277.431 152.282,277.436 151.987 C 277.440 151.692,277.610 151.230,277.814 150.961 C 278.017 150.691,278.184 150.149,278.184 149.755 C 278.184 149.361,278.347 148.976,278.547 148.899 C 278.747 148.823,278.988 148.401,279.084 147.961 C 279.179 147.522,279.413 146.939,279.603 146.665 C 279.794 146.392,279.953 145.881,279.958 145.530 C 279.962 145.180,280.132 144.673,280.336 144.403 C 280.540 144.134,280.706 143.552,280.706 143.110 C 280.706 142.668,280.876 142.165,281.084 141.992 C 281.293 141.820,281.463 141.479,281.463 141.236 C 281.463 140.992,281.633 140.652,281.841 140.479 C 282.049 140.307,282.222 139.924,282.225 139.629 C 282.228 139.334,282.455 138.597,282.729 137.993 C 283.004 137.388,283.228 136.727,283.228 136.524 C 283.228 136.322,283.398 135.985,283.607 135.777 C 283.815 135.569,283.988 135.152,283.993 134.850 C 283.997 134.547,284.168 134.080,284.371 133.811 C 284.575 133.541,284.741 132.945,284.741 132.486 C 284.741 132.027,284.827 131.652,284.932 131.652 C 285.162 131.652,286.255 129.327,286.255 128.838 C 286.255 128.648,286.482 128.068,286.759 127.551 C 287.037 127.033,287.264 126.374,287.264 126.086 C 287.264 125.798,287.434 125.393,287.642 125.185 C 287.850 124.977,288.020 124.545,288.020 124.225 C 288.020 123.905,288.190 123.502,288.398 123.329 C 288.607 123.156,288.777 122.646,288.777 122.194 C 288.777 121.743,288.947 121.232,289.155 121.059 C 289.363 120.887,289.533 120.585,289.533 120.389 C 289.533 120.193,289.693 119.781,289.887 119.474 C 290.081 119.167,290.323 118.518,290.424 118.033 C 290.524 117.547,290.762 116.926,290.953 116.653 C 291.143 116.379,291.299 115.963,291.299 115.727 C 291.299 115.492,291.462 114.978,291.662 114.585 C 292.387 113.158,292.812 112.018,292.812 111.500 C 292.812 111.209,292.913 110.971,293.035 110.971 C 293.317 110.971,294.073 108.693,294.073 107.846 C 294.073 106.832,293.558 105.973,292.583 105.361 L 291.677 104.792 272.762 104.869 C 255.966 104.938,253.733 104.992,252.837 105.358 C 251.556 105.880,250.946 106.392,250.946 106.944 C 250.946 107.183,250.776 107.520,250.567 107.692 C 250.303 107.912,250.189 108.494,250.189 109.623 C 250.189 110.827,250.093 111.276,249.811 111.384 C 249.603 111.464,249.433 111.777,249.433 112.080 C 249.433 112.382,249.206 113.075,248.928 113.619 C 248.650 114.165,248.420 115.121,248.416 115.753 C 248.411 116.383,248.241 117.118,248.037 117.387 C 247.834 117.657,247.667 118.182,247.667 118.555 C 247.667 118.927,247.497 119.373,247.289 119.546 C 247.033 119.759,246.910 120.329,246.910 121.311 C 246.910 122.294,246.788 122.864,246.532 123.077 C 246.324 123.250,246.154 123.726,246.154 124.135 C 246.154 124.544,246.000 125.032,245.812 125.220 C 245.625 125.408,245.398 126.180,245.310 126.935 C 245.221 127.691,244.978 128.636,244.770 129.035 C 244.562 129.434,244.387 130.044,244.382 130.391 C 244.377 130.738,244.206 131.242,244.002 131.511 C 243.794 131.786,243.632 132.540,243.632 133.231 C 243.632 133.989,243.486 134.608,243.253 134.841 C 243.045 135.049,242.875 135.537,242.875 135.927 C 242.875 136.316,242.705 136.776,242.497 136.948 C 242.248 137.155,242.119 137.718,242.119 138.592 C 242.119 139.508,242.007 139.964,241.760 140.058 C 241.562 140.134,241.351 140.458,241.290 140.779 C 241.222 141.135,241.164 140.968,241.143 140.353 C 241.123 139.798,240.937 139.019,240.730 138.622 C 240.523 138.225,240.353 137.654,240.353 137.354 C 240.353 137.054,240.203 136.584,240.019 136.311 C 239.835 136.037,239.420 134.678,239.097 133.291 C 238.775 131.904,238.368 130.542,238.195 130.265 C 238.021 129.987,237.801 129.165,237.705 128.437 C 237.610 127.709,237.429 127.049,237.303 126.972 C 237.177 126.894,237.074 126.454,237.074 125.993 C 237.074 125.533,236.904 125.015,236.696 124.842 C 236.488 124.670,236.318 124.167,236.318 123.725 C 236.318 123.283,236.151 122.701,235.947 122.432 C 235.744 122.162,235.574 121.485,235.569 120.926 C 235.565 120.368,235.402 119.683,235.206 119.404 C 235.011 119.125,234.772 118.334,234.675 117.645 C 234.577 116.957,234.340 116.142,234.147 115.835 C 233.954 115.528,233.796 114.946,233.796 114.542 C 233.796 114.138,233.625 113.666,233.417 113.493 C 233.209 113.320,233.039 112.817,233.039 112.375 C 233.039 111.933,232.872 111.352,232.669 111.082 C 232.459 110.805,232.295 110.035,232.290 109.307 C 232.285 108.392,232.137 107.854,231.778 107.440 C 231.501 107.120,231.274 106.762,231.274 106.645 C 231.274 106.527,231.103 106.431,230.895 106.431 C 230.687 106.431,230.514 106.289,230.511 106.116 C 230.487 104.965,229.697 104.918,210.261 104.918 L 191.936 104.918 191.869 55.237 L 191.803 5.555 190.602 4.354 L 189.401 3.153 180.262 3.144 C 175.235 3.139,161.764 3.168,150.326 3.209 M127.364 46.910 C 127.364 53.793,127.311 54.981,126.999 54.981 C 126.732 54.981,126.608 55.374,126.542 56.431 C 126.492 57.229,126.431 56.406,126.407 54.603 C 126.382 52.738,126.455 51.469,126.577 51.660 C 127.012 52.347,127.112 51.100,127.112 44.998 C 127.112 41.611,127.169 38.840,127.238 38.840 C 127.308 38.840,127.364 42.472,127.364 46.910 M193.144 120.634 C 193.277 120.799,193.464 121.407,193.559 121.985 C 193.654 122.564,193.894 123.099,194.092 123.175 C 194.290 123.251,194.451 123.604,194.451 123.960 C 194.451 124.315,194.622 124.671,194.830 124.751 C 195.084 124.849,195.208 125.249,195.208 125.973 C 195.208 126.623,195.358 127.175,195.586 127.364 C 195.794 127.537,195.965 127.878,195.965 128.121 C 195.965 128.365,196.120 128.693,196.311 128.851 C 196.501 129.009,196.715 129.651,196.785 130.279 C 196.856 130.907,197.098 131.623,197.322 131.871 C 197.546 132.119,197.730 132.572,197.730 132.878 C 197.730 133.183,197.900 133.499,198.108 133.578 C 198.356 133.673,198.487 134.066,198.487 134.713 C 198.487 135.360,198.618 135.753,198.865 135.848 C 199.082 135.932,199.243 136.308,199.243 136.731 C 199.243 137.154,199.405 137.530,199.622 137.614 C 199.857 137.704,200.000 138.088,200.000 138.628 C 200.000 139.430,200.848 141.403,201.352 141.771 C 201.471 141.859,201.627 142.453,201.699 143.092 C 201.771 143.731,201.986 144.383,202.176 144.541 C 202.366 144.699,202.522 145.084,202.522 145.397 C 202.522 145.710,202.692 146.107,202.900 146.280 C 203.108 146.453,203.279 146.907,203.279 147.289 C 203.279 147.671,203.449 148.125,203.657 148.298 C 203.865 148.470,204.035 148.856,204.035 149.155 C 204.035 149.454,204.191 149.922,204.382 150.196 C 204.573 150.470,204.811 151.184,204.912 151.783 C 205.012 152.382,205.253 152.933,205.448 153.008 C 205.642 153.083,205.801 153.419,205.801 153.755 C 205.801 154.091,205.971 154.432,206.179 154.512 C 206.423 154.605,206.557 154.995,206.557 155.608 C 206.557 156.145,206.722 156.695,206.936 156.873 C 207.144 157.045,207.314 157.435,207.314 157.738 C 207.314 158.041,207.481 158.510,207.684 158.779 C 207.888 159.048,208.058 159.502,208.063 159.787 C 208.067 160.073,208.467 161.094,208.953 162.057 C 209.438 163.020,209.835 164.107,209.835 164.471 C 209.836 164.835,210.006 165.275,210.214 165.448 C 210.422 165.620,210.593 165.961,210.593 166.204 C 210.593 166.448,210.751 166.778,210.944 166.938 C 211.137 167.098,211.369 167.727,211.460 168.336 C 211.552 168.944,211.791 169.578,211.992 169.745 C 212.464 170.137,212.457 171.179,211.976 172.101 C 211.767 172.501,211.527 173.267,211.441 173.804 C 211.355 174.340,211.196 174.779,211.087 174.779 C 210.978 174.779,210.808 175.262,210.709 175.851 C 210.610 176.441,210.373 177.147,210.183 177.421 C 209.992 177.694,209.832 178.375,209.828 178.934 C 209.824 179.492,209.653 180.170,209.450 180.439 C 209.246 180.708,209.079 181.222,209.079 181.581 C 209.079 181.940,208.908 182.478,208.699 182.777 C 208.489 183.076,208.243 183.866,208.152 184.533 C 208.060 185.200,207.834 185.896,207.650 186.081 C 207.465 186.266,207.314 186.792,207.314 187.251 C 207.314 187.709,207.144 188.226,206.936 188.398 C 206.684 188.608,206.557 189.174,206.557 190.094 L 206.557 191.476 205.296 190.188 C 204.531 189.406,204.035 188.675,204.035 188.327 C 204.035 188.012,203.881 187.530,203.693 187.257 C 203.504 186.983,203.274 186.345,203.182 185.838 C 203.089 185.331,202.846 184.852,202.641 184.774 C 202.392 184.678,202.270 184.266,202.270 183.519 C 202.270 182.839,202.123 182.286,201.892 182.093 C 201.683 181.921,201.513 181.449,201.513 181.046 C 201.513 180.626,201.351 180.250,201.135 180.167 C 200.927 180.087,200.753 179.722,200.749 179.355 C 200.744 178.988,200.574 178.468,200.370 178.199 C 200.167 177.930,200.000 177.390,200.000 177.000 C 200.000 176.610,199.773 175.867,199.496 175.350 C 199.218 174.832,198.988 174.237,198.983 174.026 C 198.979 173.816,198.809 173.424,198.605 173.155 C 198.401 172.886,198.235 172.304,198.235 171.862 C 198.235 171.420,198.064 170.917,197.856 170.744 C 197.648 170.571,197.478 170.129,197.478 169.760 C 197.478 169.392,197.324 168.867,197.135 168.593 C 196.947 168.320,196.716 167.675,196.622 167.161 C 196.527 166.646,196.285 165.909,196.083 165.521 C 195.881 165.134,195.715 164.635,195.714 164.411 C 195.713 164.188,195.372 163.367,194.956 162.588 C 194.523 161.777,194.199 160.786,194.199 160.274 C 194.199 159.711,194.059 159.325,193.821 159.234 C 193.613 159.154,193.443 158.862,193.443 158.586 C 193.443 158.310,193.286 157.726,193.094 157.289 C 192.902 156.852,192.605 156.127,192.434 155.678 C 192.262 155.227,192.006 154.934,191.861 155.023 C 191.708 155.118,191.675 155.062,191.782 154.890 C 191.882 154.727,192.070 154.660,192.199 154.740 C 192.343 154.829,192.442 147.930,192.455 136.900 C 192.468 126.685,192.569 119.222,192.690 119.625 C 192.807 120.016,193.012 120.470,193.144 120.634 M99.221 123.850 C 101.036 124.009,102.430 124.258,102.745 124.478 C 103.031 124.678,103.697 124.842,104.225 124.842 C 104.847 124.842,105.237 124.976,105.331 125.221 C 105.411 125.429,105.677 125.599,105.923 125.599 C 106.169 125.599,106.511 125.769,106.683 125.977 C 106.856 126.185,107.207 126.356,107.462 126.356 C 107.718 126.356,108.310 126.692,108.779 127.103 C 109.247 127.515,109.903 127.970,110.237 128.116 C 110.572 128.262,111.185 128.605,111.602 128.879 C 112.018 129.152,112.501 129.447,112.676 129.534 C 112.851 129.620,113.381 130.047,113.852 130.482 C 116.367 132.802,117.379 133.670,117.569 133.670 C 117.686 133.670,117.781 133.787,117.781 133.930 C 117.781 134.074,118.121 134.524,118.537 134.931 C 118.953 135.337,119.294 135.771,119.294 135.894 C 119.294 136.017,119.549 136.401,119.861 136.747 C 121.083 138.102,121.598 138.768,121.832 139.297 C 121.966 139.601,122.299 140.189,122.573 140.605 C 122.846 141.021,123.182 141.617,123.319 141.929 C 123.456 142.241,123.685 142.497,123.827 142.497 C 123.969 142.497,124.086 142.784,124.086 143.135 C 124.086 143.486,124.256 143.839,124.464 143.919 C 124.672 143.999,124.842 144.271,124.842 144.523 C 124.842 144.776,125.020 145.160,125.236 145.377 C 125.453 145.593,125.694 146.167,125.773 146.652 C 125.852 147.136,126.072 147.662,126.262 147.820 C 126.547 148.057,126.608 150.520,126.608 161.894 C 126.608 177.091,126.672 176.432,125.013 178.223 C 123.546 179.807,122.575 180.968,122.574 181.139 C 122.572 181.386,119.107 184.867,118.861 184.869 C 118.675 184.870,117.752 185.636,115.818 187.394 C 115.363 187.808,114.881 188.146,114.746 188.146 C 114.612 188.146,114.502 188.317,114.502 188.525 C 114.502 188.761,114.263 188.903,113.863 188.903 C 113.512 188.903,113.160 189.073,113.080 189.281 C 113.000 189.489,112.677 189.660,112.362 189.660 C 112.047 189.660,111.648 189.830,111.475 190.038 C 111.303 190.246,110.858 190.416,110.486 190.416 C 110.115 190.416,109.674 190.553,109.507 190.720 C 109.169 191.058,107.522 191.565,105.422 191.977 C 104.660 192.126,103.811 192.404,103.538 192.593 C 102.891 193.042,92.569 193.098,92.126 192.656 C 91.971 192.501,91.409 192.282,90.878 192.170 C 88.890 191.751,86.622 191.039,86.300 190.733 C 86.116 190.559,85.705 190.416,85.385 190.416 C 85.065 190.416,84.662 190.246,84.489 190.038 C 84.317 189.830,83.976 189.660,83.733 189.660 C 83.489 189.660,83.149 189.489,82.976 189.281 C 82.803 189.073,82.514 188.903,82.332 188.903 C 81.884 188.903,79.210 187.096,78.455 186.283 C 78.119 185.921,77.699 185.624,77.522 185.624 C 77.115 185.624,74.655 183.183,74.649 182.775 C 74.647 182.608,74.128 181.904,73.495 181.211 C 72.863 180.517,72.241 179.723,72.113 179.445 C 71.985 179.168,71.775 178.770,71.646 178.562 C 71.516 178.354,71.347 178.014,71.268 177.806 C 71.190 177.598,71.020 177.257,70.890 177.049 C 70.760 176.841,70.590 176.501,70.512 176.293 C 70.433 176.084,70.271 175.744,70.151 175.536 C 69.452 174.322,69.149 173.513,68.994 172.445 C 68.899 171.785,68.659 170.934,68.460 170.554 C 68.261 170.173,68.098 169.457,68.097 168.964 C 68.097 168.470,67.929 167.846,67.726 167.577 C 67.456 167.220,67.353 166.365,67.347 164.424 C 67.341 162.483,67.239 161.628,66.969 161.271 C 66.739 160.967,66.599 160.209,66.599 159.269 C 66.599 158.329,66.739 157.570,66.969 157.266 C 67.236 156.913,67.342 156.068,67.348 154.239 C 67.354 152.517,67.473 151.500,67.718 151.072 C 67.916 150.725,68.083 150.101,68.088 149.685 C 68.094 149.269,68.266 148.609,68.469 148.218 C 68.673 147.828,68.917 146.922,69.012 146.205 C 69.107 145.489,69.337 144.750,69.523 144.564 C 69.709 144.378,69.861 144.056,69.861 143.848 C 69.861 143.640,70.032 143.299,70.240 143.091 C 70.448 142.883,70.618 142.451,70.618 142.131 C 70.618 141.812,70.788 141.408,70.996 141.236 C 71.204 141.063,71.375 140.782,71.375 140.612 C 71.375 140.330,72.018 139.011,72.915 137.456 C 73.353 136.698,73.649 136.289,74.212 135.669 C 74.455 135.402,74.655 135.041,74.658 134.868 C 74.662 134.605,75.445 133.724,77.439 131.740 C 77.599 131.581,77.927 131.240,78.167 130.984 C 78.957 130.140,80.498 128.878,80.738 128.878 C 80.868 128.878,81.040 128.707,81.119 128.499 C 81.199 128.291,81.400 128.121,81.565 128.121 C 81.899 128.121,82.820 127.471,83.439 126.797 C 83.669 126.547,84.207 126.356,84.679 126.356 C 85.189 126.356,85.571 126.208,85.659 125.977 C 85.739 125.769,86.062 125.599,86.377 125.599 C 86.692 125.599,87.091 125.429,87.264 125.221 C 87.436 125.013,87.953 124.842,88.411 124.842 C 88.870 124.842,89.415 124.672,89.623 124.464 C 89.856 124.232,90.519 124.075,91.344 124.058 C 92.440 124.036,94.029 123.886,95.965 123.621 C 96.103 123.602,97.569 123.705,99.221 123.850 M190.605 135.498 C 190.562 137.336,190.526 135.832,190.526 132.156 C 190.526 128.480,190.562 126.977,190.605 128.815 C 190.648 130.653,190.648 133.660,190.605 135.498 M358.089 194.024 C 357.905 194.205,357.557 194.429,357.314 194.521 C 356.898 194.678,356.873 196.120,356.873 219.896 L 356.873 245.104 357.722 245.629 C 358.812 246.302,397.878 246.475,398.544 245.809 C 398.733 245.619,399.139 245.384,399.444 245.287 L 400.000 245.111 399.998 219.970 L 399.997 194.830 399.163 194.262 L 398.329 193.695 378.376 193.695 C 362.295 193.695,358.357 193.759,358.089 194.024 " stroke="none" fill="#44c4fc" fill-rule="evenodd"></path><path id="path1" d="M127.112 44.998 C 127.112 51.100,127.012 52.347,126.577 51.660 C 126.455 51.469,126.382 52.738,126.407 54.603 C 126.431 56.406,126.492 57.229,126.542 56.431 C 126.608 55.374,126.732 54.981,126.999 54.981 C 127.311 54.981,127.364 53.793,127.364 46.910 C 127.364 42.472,127.308 38.840,127.238 38.840 C 127.169 38.840,127.112 41.611,127.112 44.998 M190.526 132.156 C 190.526 135.832,190.562 137.336,190.605 135.498 C 190.648 133.660,190.648 130.653,190.605 128.815 C 190.562 126.977,190.526 128.480,190.526 132.156 " stroke="none" fill="#48c4fc" fill-rule="evenodd"></path><path id="path2" d="M127.112 44.998 C 127.112 51.100,127.012 52.347,126.577 51.660 C 126.455 51.469,126.382 52.738,126.407 54.603 C 126.431 56.406,126.492 57.229,126.542 56.431 C 126.608 55.374,126.732 54.981,126.999 54.981 C 127.311 54.981,127.364 53.793,127.364 46.910 C 127.364 42.472,127.308 38.840,127.238 38.840 C 127.169 38.840,127.112 41.611,127.112 44.998 M190.526 132.156 C 190.526 135.832,190.562 137.336,190.605 135.498 C 190.648 133.660,190.648 130.653,190.605 128.815 C 190.562 126.977,190.526 128.480,190.526 132.156 " stroke="none" fill="#48c4fc" fill-rule="evenodd"></path><path id="path3" d="M127.112 44.998 C 127.112 51.100,127.012 52.347,126.577 51.660 C 126.455 51.469,126.382 52.738,126.407 54.603 C 126.431 56.406,126.492 57.229,126.542 56.431 C 126.608 55.374,126.732 54.981,126.999 54.981 C 127.311 54.981,127.364 53.793,127.364 46.910 C 127.364 42.472,127.308 38.840,127.238 38.840 C 127.169 38.840,127.112 41.611,127.112 44.998 M190.526 132.156 C 190.526 135.832,190.562 137.336,190.605 135.498 C 190.648 133.660,190.648 130.653,190.605 128.815 C 190.562 126.977,190.526 128.480,190.526 132.156 " stroke="none" fill="#48c4fc" fill-rule="evenodd"></path><path id="path4" d="M127.112 44.998 C 127.112 51.100,127.012 52.347,126.577 51.660 C 126.455 51.469,126.382 52.738,126.407 54.603 C 126.431 56.406,126.492 57.229,126.542 56.431 C 126.608 55.374,126.732 54.981,126.999 54.981 C 127.311 54.981,127.364 53.793,127.364 46.910 C 127.364 42.472,127.308 38.840,127.238 38.840 C 127.169 38.840,127.112 41.611,127.112 44.998 M190.526 132.156 C 190.526 135.832,190.562 137.336,190.605 135.498 C 190.648 133.660,190.648 130.653,190.605 128.815 C 190.562 126.977,190.526 128.480,190.526 132.156 " stroke="none" fill="#48c4fc" fill-rule="evenodd"></path></g></svg>